<mxfile host="app.diagrams.net" modified="2023-06-26T21:19:24.674Z" agent="Mozilla/5.0 (X11; Ubuntu; Linux x86_64; rv:109.0) Gecko/20100101 Firefox/114.0" etag="Buq0Vij5uMnXJZ17YEX-" version="21.5.0" type="github">
  <diagram name="Page-1" id="bkjvVGTk73eUiMcfvrir">
    <mxGraphModel dx="1600" dy="935" grid="1" gridSize="10" guides="1" tooltips="1" connect="1" arrows="1" fold="1" page="1" pageScale="1" pageWidth="850" pageHeight="1100" math="0" shadow="0">
      <root>
        <mxCell id="0" />
        <mxCell id="1" parent="0" />
        <mxCell id="PeIPrwLjLWVOo4O1l7L--5" value="" style="edgeStyle=orthogonalEdgeStyle;rounded=0;orthogonalLoop=1;jettySize=auto;html=1;" edge="1" parent="1" source="PeIPrwLjLWVOo4O1l7L--1" target="PeIPrwLjLWVOo4O1l7L--2">
          <mxGeometry relative="1" as="geometry" />
        </mxCell>
        <mxCell id="PeIPrwLjLWVOo4O1l7L--1" value="Start" style="rounded=1;whiteSpace=wrap;html=1;" vertex="1" parent="1">
          <mxGeometry x="40" y="20" width="120" height="60" as="geometry" />
        </mxCell>
        <mxCell id="PeIPrwLjLWVOo4O1l7L--7" value="" style="edgeStyle=orthogonalEdgeStyle;rounded=0;orthogonalLoop=1;jettySize=auto;html=1;" edge="1" parent="1" source="PeIPrwLjLWVOo4O1l7L--2" target="PeIPrwLjLWVOo4O1l7L--3">
          <mxGeometry relative="1" as="geometry" />
        </mxCell>
        <mxCell id="PeIPrwLjLWVOo4O1l7L--2" value="&lt;font size=&quot;1&quot;&gt;is sum greater than zero&lt;br&gt;&lt;/font&gt;" style="rhombus;whiteSpace=wrap;html=1;" vertex="1" parent="1">
          <mxGeometry x="35" y="170" width="130" height="130" as="geometry" />
        </mxCell>
        <mxCell id="PeIPrwLjLWVOo4O1l7L--16" value="" style="edgeStyle=orthogonalEdgeStyle;rounded=0;orthogonalLoop=1;jettySize=auto;html=1;" edge="1" parent="1" source="PeIPrwLjLWVOo4O1l7L--3" target="PeIPrwLjLWVOo4O1l7L--4">
          <mxGeometry relative="1" as="geometry" />
        </mxCell>
        <mxCell id="PeIPrwLjLWVOo4O1l7L--3" value="get number " style="shape=parallelogram;perimeter=parallelogramPerimeter;whiteSpace=wrap;html=1;fixedSize=1;" vertex="1" parent="1">
          <mxGeometry x="40" y="370" width="120" height="60" as="geometry" />
        </mxCell>
        <mxCell id="PeIPrwLjLWVOo4O1l7L--19" value="" style="edgeStyle=orthogonalEdgeStyle;rounded=0;orthogonalLoop=1;jettySize=auto;html=1;" edge="1" parent="1" source="PeIPrwLjLWVOo4O1l7L--4" target="PeIPrwLjLWVOo4O1l7L--18">
          <mxGeometry relative="1" as="geometry" />
        </mxCell>
        <mxCell id="PeIPrwLjLWVOo4O1l7L--4" value="Sum = Sum +Square(number)" style="rounded=0;whiteSpace=wrap;html=1;" vertex="1" parent="1">
          <mxGeometry x="270" y="370" width="120" height="60" as="geometry" />
        </mxCell>
        <mxCell id="PeIPrwLjLWVOo4O1l7L--21" value="" style="edgeStyle=orthogonalEdgeStyle;rounded=0;orthogonalLoop=1;jettySize=auto;html=1;" edge="1" parent="1" source="PeIPrwLjLWVOo4O1l7L--18" target="PeIPrwLjLWVOo4O1l7L--20">
          <mxGeometry relative="1" as="geometry" />
        </mxCell>
        <mxCell id="PeIPrwLjLWVOo4O1l7L--18" value="" style="shape=waypoint;sketch=0;size=6;pointerEvents=1;points=[];fillColor=default;resizable=0;rotatable=0;perimeter=centerPerimeter;snapToPoint=1;rounded=0;" vertex="1" parent="1">
          <mxGeometry x="320" y="225" width="20" height="20" as="geometry" />
        </mxCell>
        <mxCell id="PeIPrwLjLWVOo4O1l7L--20" value="" style="shape=waypoint;sketch=0;size=6;pointerEvents=1;points=[];fillColor=default;resizable=0;rotatable=0;perimeter=centerPerimeter;snapToPoint=1;rounded=0;" vertex="1" parent="1">
          <mxGeometry x="160" y="225" width="20" height="20" as="geometry" />
        </mxCell>
        <mxCell id="PeIPrwLjLWVOo4O1l7L--22" value="Yes" style="text;strokeColor=none;fillColor=none;align=left;verticalAlign=middle;spacingLeft=4;spacingRight=4;overflow=hidden;points=[[0,0.5],[1,0.5]];portConstraint=eastwest;rotatable=0;whiteSpace=wrap;html=1;" vertex="1" parent="1">
          <mxGeometry x="100" y="310" width="80" height="30" as="geometry" />
        </mxCell>
        <mxCell id="PeIPrwLjLWVOo4O1l7L--237" value="" style="edgeStyle=orthogonalEdgeStyle;rounded=0;orthogonalLoop=1;jettySize=auto;html=1;" edge="1" parent="1" source="PeIPrwLjLWVOo4O1l7L--26" target="PeIPrwLjLWVOo4O1l7L--30">
          <mxGeometry relative="1" as="geometry" />
        </mxCell>
        <mxCell id="PeIPrwLjLWVOo4O1l7L--263" style="edgeStyle=orthogonalEdgeStyle;rounded=0;orthogonalLoop=1;jettySize=auto;html=1;entryX=0;entryY=0.5;entryDx=0;entryDy=0;" edge="1" parent="1" source="PeIPrwLjLWVOo4O1l7L--26" target="PeIPrwLjLWVOo4O1l7L--262">
          <mxGeometry relative="1" as="geometry" />
        </mxCell>
        <mxCell id="PeIPrwLjLWVOo4O1l7L--26" value="&lt;font size=&quot;1&quot;&gt;is count greater than 3&lt;br&gt;&lt;/font&gt;" style="rhombus;whiteSpace=wrap;html=1;" vertex="1" parent="1">
          <mxGeometry x="320" y="640" width="130" height="130" as="geometry" />
        </mxCell>
        <mxCell id="PeIPrwLjLWVOo4O1l7L--236" value="" style="edgeStyle=orthogonalEdgeStyle;rounded=0;orthogonalLoop=1;jettySize=auto;html=1;" edge="1" parent="1" source="PeIPrwLjLWVOo4O1l7L--28" target="PeIPrwLjLWVOo4O1l7L--26">
          <mxGeometry relative="1" as="geometry" />
        </mxCell>
        <mxCell id="PeIPrwLjLWVOo4O1l7L--28" value="&lt;div&gt;a = get input&lt;/div&gt;&lt;div&gt;b = get input&lt;/div&gt;&lt;div&gt;c = get input&lt;br&gt;&lt;/div&gt;" style="shape=parallelogram;perimeter=parallelogramPerimeter;whiteSpace=wrap;html=1;fixedSize=1;" vertex="1" parent="1">
          <mxGeometry x="35" y="670" width="175" height="90" as="geometry" />
        </mxCell>
        <mxCell id="PeIPrwLjLWVOo4O1l7L--238" value="" style="edgeStyle=orthogonalEdgeStyle;rounded=0;orthogonalLoop=1;jettySize=auto;html=1;" edge="1" parent="1" source="PeIPrwLjLWVOo4O1l7L--30" target="PeIPrwLjLWVOo4O1l7L--38">
          <mxGeometry relative="1" as="geometry" />
        </mxCell>
        <mxCell id="PeIPrwLjLWVOo4O1l7L--30" value="&lt;div&gt;highest = get highest &lt;br&gt;&lt;/div&gt;&lt;div&gt;print (highest)&lt;/div&gt;&lt;div&gt;increase count by 1&lt;br&gt;&lt;/div&gt;" style="rounded=0;whiteSpace=wrap;html=1;" vertex="1" parent="1">
          <mxGeometry x="325" y="820" width="120" height="60" as="geometry" />
        </mxCell>
        <mxCell id="PeIPrwLjLWVOo4O1l7L--235" value="" style="edgeStyle=orthogonalEdgeStyle;rounded=0;orthogonalLoop=1;jettySize=auto;html=1;" edge="1" parent="1" source="PeIPrwLjLWVOo4O1l7L--35" target="PeIPrwLjLWVOo4O1l7L--28">
          <mxGeometry relative="1" as="geometry" />
        </mxCell>
        <mxCell id="PeIPrwLjLWVOo4O1l7L--35" value="Start" style="rounded=1;whiteSpace=wrap;html=1;" vertex="1" parent="1">
          <mxGeometry x="45" y="540" width="120" height="60" as="geometry" />
        </mxCell>
        <mxCell id="PeIPrwLjLWVOo4O1l7L--247" value="" style="edgeStyle=orthogonalEdgeStyle;rounded=0;orthogonalLoop=1;jettySize=auto;html=1;" edge="1" parent="1" source="PeIPrwLjLWVOo4O1l7L--36" target="PeIPrwLjLWVOo4O1l7L--244">
          <mxGeometry relative="1" as="geometry" />
        </mxCell>
        <mxCell id="PeIPrwLjLWVOo4O1l7L--36" value="&lt;font size=&quot;1&quot;&gt;is highest c?&lt;br&gt;&lt;/font&gt;" style="rhombus;whiteSpace=wrap;html=1;" vertex="1" parent="1">
          <mxGeometry x="320" y="1280" width="130" height="130" as="geometry" />
        </mxCell>
        <mxCell id="PeIPrwLjLWVOo4O1l7L--240" value="" style="edgeStyle=orthogonalEdgeStyle;rounded=0;orthogonalLoop=1;jettySize=auto;html=1;" edge="1" parent="1" source="PeIPrwLjLWVOo4O1l7L--37" target="PeIPrwLjLWVOo4O1l7L--36">
          <mxGeometry relative="1" as="geometry" />
        </mxCell>
        <mxCell id="PeIPrwLjLWVOo4O1l7L--246" value="" style="edgeStyle=orthogonalEdgeStyle;rounded=0;orthogonalLoop=1;jettySize=auto;html=1;" edge="1" parent="1" source="PeIPrwLjLWVOo4O1l7L--37" target="PeIPrwLjLWVOo4O1l7L--243">
          <mxGeometry relative="1" as="geometry" />
        </mxCell>
        <mxCell id="PeIPrwLjLWVOo4O1l7L--37" value="&lt;font size=&quot;1&quot;&gt;is highest b?&lt;br&gt;&lt;/font&gt;" style="rhombus;whiteSpace=wrap;html=1;" vertex="1" parent="1">
          <mxGeometry x="320" y="1110" width="130" height="130" as="geometry" />
        </mxCell>
        <mxCell id="PeIPrwLjLWVOo4O1l7L--239" value="" style="edgeStyle=orthogonalEdgeStyle;rounded=0;orthogonalLoop=1;jettySize=auto;html=1;" edge="1" parent="1" source="PeIPrwLjLWVOo4O1l7L--38" target="PeIPrwLjLWVOo4O1l7L--37">
          <mxGeometry relative="1" as="geometry" />
        </mxCell>
        <mxCell id="PeIPrwLjLWVOo4O1l7L--245" value="" style="edgeStyle=orthogonalEdgeStyle;rounded=0;orthogonalLoop=1;jettySize=auto;html=1;" edge="1" parent="1" source="PeIPrwLjLWVOo4O1l7L--38" target="PeIPrwLjLWVOo4O1l7L--241">
          <mxGeometry relative="1" as="geometry" />
        </mxCell>
        <mxCell id="PeIPrwLjLWVOo4O1l7L--38" value="&lt;font size=&quot;1&quot;&gt;Is highest a?&lt;br&gt;&lt;/font&gt;" style="rhombus;whiteSpace=wrap;html=1;" vertex="1" parent="1">
          <mxGeometry x="320" y="930" width="130" height="130" as="geometry" />
        </mxCell>
        <mxCell id="PeIPrwLjLWVOo4O1l7L--249" value="" style="edgeStyle=orthogonalEdgeStyle;rounded=0;orthogonalLoop=1;jettySize=auto;html=1;" edge="1" parent="1" source="PeIPrwLjLWVOo4O1l7L--241" target="PeIPrwLjLWVOo4O1l7L--248">
          <mxGeometry relative="1" as="geometry" />
        </mxCell>
        <mxCell id="PeIPrwLjLWVOo4O1l7L--241" value="set a =0" style="rounded=0;whiteSpace=wrap;html=1;" vertex="1" parent="1">
          <mxGeometry x="530" y="965" width="120" height="60" as="geometry" />
        </mxCell>
        <mxCell id="PeIPrwLjLWVOo4O1l7L--251" value="" style="edgeStyle=orthogonalEdgeStyle;rounded=0;orthogonalLoop=1;jettySize=auto;html=1;" edge="1" parent="1" source="PeIPrwLjLWVOo4O1l7L--243" target="PeIPrwLjLWVOo4O1l7L--250">
          <mxGeometry relative="1" as="geometry" />
        </mxCell>
        <mxCell id="PeIPrwLjLWVOo4O1l7L--243" value="set b =0" style="rounded=0;whiteSpace=wrap;html=1;" vertex="1" parent="1">
          <mxGeometry x="530" y="1145" width="120" height="60" as="geometry" />
        </mxCell>
        <mxCell id="PeIPrwLjLWVOo4O1l7L--253" value="" style="edgeStyle=orthogonalEdgeStyle;rounded=0;orthogonalLoop=1;jettySize=auto;html=1;" edge="1" parent="1" source="PeIPrwLjLWVOo4O1l7L--244" target="PeIPrwLjLWVOo4O1l7L--252">
          <mxGeometry relative="1" as="geometry" />
        </mxCell>
        <mxCell id="PeIPrwLjLWVOo4O1l7L--244" value="set c =0" style="rounded=0;whiteSpace=wrap;html=1;" vertex="1" parent="1">
          <mxGeometry x="530" y="1315" width="120" height="60" as="geometry" />
        </mxCell>
        <mxCell id="PeIPrwLjLWVOo4O1l7L--261" style="edgeStyle=orthogonalEdgeStyle;rounded=0;orthogonalLoop=1;jettySize=auto;html=1;entryX=1;entryY=0.5;entryDx=0;entryDy=0;" edge="1" parent="1" source="PeIPrwLjLWVOo4O1l7L--248" target="PeIPrwLjLWVOo4O1l7L--26">
          <mxGeometry relative="1" as="geometry">
            <Array as="points">
              <mxPoint x="790" y="705" />
            </Array>
          </mxGeometry>
        </mxCell>
        <mxCell id="PeIPrwLjLWVOo4O1l7L--248" value="" style="shape=waypoint;sketch=0;size=6;pointerEvents=1;points=[];fillColor=default;resizable=0;rotatable=0;perimeter=centerPerimeter;snapToPoint=1;rounded=0;" vertex="1" parent="1">
          <mxGeometry x="780" y="985" width="20" height="20" as="geometry" />
        </mxCell>
        <mxCell id="PeIPrwLjLWVOo4O1l7L--257" style="edgeStyle=orthogonalEdgeStyle;rounded=0;orthogonalLoop=1;jettySize=auto;html=1;entryX=0.5;entryY=0.15;entryDx=0;entryDy=0;entryPerimeter=0;" edge="1" parent="1" source="PeIPrwLjLWVOo4O1l7L--250" target="PeIPrwLjLWVOo4O1l7L--248">
          <mxGeometry relative="1" as="geometry" />
        </mxCell>
        <mxCell id="PeIPrwLjLWVOo4O1l7L--250" value="" style="shape=waypoint;sketch=0;size=6;pointerEvents=1;points=[];fillColor=default;resizable=0;rotatable=0;perimeter=centerPerimeter;snapToPoint=1;rounded=0;" vertex="1" parent="1">
          <mxGeometry x="780" y="1165" width="20" height="20" as="geometry" />
        </mxCell>
        <mxCell id="PeIPrwLjLWVOo4O1l7L--256" style="edgeStyle=orthogonalEdgeStyle;rounded=0;orthogonalLoop=1;jettySize=auto;html=1;entryX=0.5;entryY=1.25;entryDx=0;entryDy=0;entryPerimeter=0;" edge="1" parent="1" source="PeIPrwLjLWVOo4O1l7L--252" target="PeIPrwLjLWVOo4O1l7L--250">
          <mxGeometry relative="1" as="geometry" />
        </mxCell>
        <mxCell id="PeIPrwLjLWVOo4O1l7L--252" value="" style="shape=waypoint;sketch=0;size=6;pointerEvents=1;points=[];fillColor=default;resizable=0;rotatable=0;perimeter=centerPerimeter;snapToPoint=1;rounded=0;" vertex="1" parent="1">
          <mxGeometry x="780" y="1335" width="20" height="20" as="geometry" />
        </mxCell>
        <mxCell id="PeIPrwLjLWVOo4O1l7L--262" value="end" style="rounded=1;whiteSpace=wrap;html=1;" vertex="1" parent="1">
          <mxGeometry x="440" y="540" width="120" height="60" as="geometry" />
        </mxCell>
        <mxCell id="PeIPrwLjLWVOo4O1l7L--264" value="yes" style="text;html=1;strokeColor=none;fillColor=none;align=center;verticalAlign=middle;whiteSpace=wrap;rounded=0;" vertex="1" parent="1">
          <mxGeometry x="380" y="590" width="60" height="30" as="geometry" />
        </mxCell>
        <mxCell id="PeIPrwLjLWVOo4O1l7L--265" value="no" style="text;html=1;strokeColor=none;fillColor=none;align=center;verticalAlign=middle;whiteSpace=wrap;rounded=0;" vertex="1" parent="1">
          <mxGeometry x="395" y="780" width="60" height="30" as="geometry" />
        </mxCell>
        <mxCell id="PeIPrwLjLWVOo4O1l7L--266" value="no" style="text;html=1;strokeColor=none;fillColor=none;align=center;verticalAlign=middle;whiteSpace=wrap;rounded=0;" vertex="1" parent="1">
          <mxGeometry x="380" y="1070" width="60" height="30" as="geometry" />
        </mxCell>
        <mxCell id="PeIPrwLjLWVOo4O1l7L--267" value="no" style="text;html=1;strokeColor=none;fillColor=none;align=center;verticalAlign=middle;whiteSpace=wrap;rounded=0;" vertex="1" parent="1">
          <mxGeometry x="385" y="1240" width="60" height="30" as="geometry" />
        </mxCell>
        <mxCell id="PeIPrwLjLWVOo4O1l7L--268" value="yes" style="text;html=1;strokeColor=none;fillColor=none;align=center;verticalAlign=middle;whiteSpace=wrap;rounded=0;" vertex="1" parent="1">
          <mxGeometry x="455" y="955" width="60" height="30" as="geometry" />
        </mxCell>
        <mxCell id="PeIPrwLjLWVOo4O1l7L--269" value="yes" style="text;html=1;strokeColor=none;fillColor=none;align=center;verticalAlign=middle;whiteSpace=wrap;rounded=0;" vertex="1" parent="1">
          <mxGeometry x="455" y="1145" width="60" height="30" as="geometry" />
        </mxCell>
        <mxCell id="PeIPrwLjLWVOo4O1l7L--270" value="yes" style="text;html=1;strokeColor=none;fillColor=none;align=center;verticalAlign=middle;whiteSpace=wrap;rounded=0;" vertex="1" parent="1">
          <mxGeometry x="455" y="1315" width="60" height="30" as="geometry" />
        </mxCell>
        <mxCell id="PeIPrwLjLWVOo4O1l7L--281" value="" style="edgeStyle=orthogonalEdgeStyle;rounded=0;orthogonalLoop=1;jettySize=auto;html=1;" edge="1" parent="1" source="PeIPrwLjLWVOo4O1l7L--271" target="PeIPrwLjLWVOo4O1l7L--275">
          <mxGeometry relative="1" as="geometry" />
        </mxCell>
        <mxCell id="PeIPrwLjLWVOo4O1l7L--271" value="Start" style="rounded=1;whiteSpace=wrap;html=1;" vertex="1" parent="1">
          <mxGeometry x="990" y="20" width="120" height="60" as="geometry" />
        </mxCell>
        <mxCell id="PeIPrwLjLWVOo4O1l7L--277" style="edgeStyle=orthogonalEdgeStyle;rounded=0;orthogonalLoop=1;jettySize=auto;html=1;entryX=0.5;entryY=0;entryDx=0;entryDy=0;" edge="1" parent="1" source="PeIPrwLjLWVOo4O1l7L--272" target="PeIPrwLjLWVOo4O1l7L--273">
          <mxGeometry relative="1" as="geometry" />
        </mxCell>
        <mxCell id="PeIPrwLjLWVOo4O1l7L--284" style="edgeStyle=orthogonalEdgeStyle;rounded=0;orthogonalLoop=1;jettySize=auto;html=1;" edge="1" parent="1" source="PeIPrwLjLWVOo4O1l7L--272" target="PeIPrwLjLWVOo4O1l7L--283">
          <mxGeometry relative="1" as="geometry" />
        </mxCell>
        <mxCell id="PeIPrwLjLWVOo4O1l7L--272" value="&lt;font style=&quot;font-size: 14px;&quot;&gt;is input =-1&lt;br&gt;&lt;/font&gt;" style="rhombus;whiteSpace=wrap;html=1;" vertex="1" parent="1">
          <mxGeometry x="985" y="300" width="130" height="130" as="geometry" />
        </mxCell>
        <mxCell id="PeIPrwLjLWVOo4O1l7L--278" style="edgeStyle=orthogonalEdgeStyle;rounded=0;orthogonalLoop=1;jettySize=auto;html=1;entryX=0.5;entryY=1;entryDx=0;entryDy=0;" edge="1" parent="1" source="PeIPrwLjLWVOo4O1l7L--273" target="PeIPrwLjLWVOo4O1l7L--274">
          <mxGeometry relative="1" as="geometry" />
        </mxCell>
        <mxCell id="PeIPrwLjLWVOo4O1l7L--273" value="&lt;font size=&quot;1&quot;&gt;Sum = sum + input&lt;br&gt;&lt;/font&gt;" style="rounded=0;whiteSpace=wrap;html=1;" vertex="1" parent="1">
          <mxGeometry x="995" y="500" width="120" height="60" as="geometry" />
        </mxCell>
        <mxCell id="PeIPrwLjLWVOo4O1l7L--280" style="edgeStyle=orthogonalEdgeStyle;rounded=0;orthogonalLoop=1;jettySize=auto;html=1;entryX=1;entryY=0.5;entryDx=0;entryDy=0;" edge="1" parent="1" source="PeIPrwLjLWVOo4O1l7L--274" target="PeIPrwLjLWVOo4O1l7L--272">
          <mxGeometry relative="1" as="geometry">
            <Array as="points">
              <mxPoint x="1330" y="365" />
            </Array>
          </mxGeometry>
        </mxCell>
        <mxCell id="PeIPrwLjLWVOo4O1l7L--274" value="get input" style="shape=parallelogram;perimeter=parallelogramPerimeter;whiteSpace=wrap;html=1;fixedSize=1;" vertex="1" parent="1">
          <mxGeometry x="1270" y="410" width="120" height="60" as="geometry" />
        </mxCell>
        <mxCell id="PeIPrwLjLWVOo4O1l7L--282" value="" style="edgeStyle=orthogonalEdgeStyle;rounded=0;orthogonalLoop=1;jettySize=auto;html=1;" edge="1" parent="1" source="PeIPrwLjLWVOo4O1l7L--275" target="PeIPrwLjLWVOo4O1l7L--272">
          <mxGeometry relative="1" as="geometry" />
        </mxCell>
        <mxCell id="PeIPrwLjLWVOo4O1l7L--275" value="&lt;div&gt;input = 0 &lt;br&gt;&lt;/div&gt;" style="rounded=0;whiteSpace=wrap;html=1;" vertex="1" parent="1">
          <mxGeometry x="990" y="165" width="120" height="60" as="geometry" />
        </mxCell>
        <mxCell id="PeIPrwLjLWVOo4O1l7L--283" value="Print sum" style="rounded=0;whiteSpace=wrap;html=1;" vertex="1" parent="1">
          <mxGeometry x="740" y="335" width="120" height="60" as="geometry" />
        </mxCell>
        <mxCell id="PeIPrwLjLWVOo4O1l7L--285" value="Yes" style="text;strokeColor=none;fillColor=none;align=left;verticalAlign=middle;spacingLeft=4;spacingRight=4;overflow=hidden;points=[[0,0.5],[1,0.5]];portConstraint=eastwest;rotatable=0;whiteSpace=wrap;html=1;" vertex="1" parent="1">
          <mxGeometry x="900" y="335" width="80" height="30" as="geometry" />
        </mxCell>
        <mxCell id="PeIPrwLjLWVOo4O1l7L--286" value="no" style="text;html=1;strokeColor=none;fillColor=none;align=center;verticalAlign=middle;whiteSpace=wrap;rounded=0;" vertex="1" parent="1">
          <mxGeometry x="1050" y="440" width="60" height="30" as="geometry" />
        </mxCell>
      </root>
    </mxGraphModel>
  </diagram>
</mxfile>
